<svg width="600" height="600" viewBox="0 0 600 600" fill="none" xmlns="http://www.w3.org/2000/svg">
<circle cx="300" cy="300" r="194.5" stroke="#D9D9D9" stroke-width="5"/>
<g clip-path="url(#clip0_584_69)">
<path d="M300.001 23.9995C287.56 125.543 283.447 190.023 259.139 231.646C219.404 283.382 150.529 288.309 24.0005 300C148.478 315.061 215.782 318.325 255.633 365.719C285.407 407.675 290.445 472.575 300.001 576C316.231 441.863 318.773 374.125 377.588 335.58C419.406 315.381 481.807 310.972 576.001 300C459.204 285.691 391.438 282.398 351.094 246.719C316.98 206.05 313.341 138.52 300.001 23.9995Z" fill="#C8BA9F" fill-opacity="0.7"/>
<path d="M457 392C455.918 400.609 455.561 406.076 453.447 409.605C449.992 413.991 444.003 414.409 433 415.4C443.824 416.677 449.677 416.954 453.142 420.972C455.731 424.529 456.169 430.031 457 438.8C458.411 427.428 458.632 421.685 463.747 418.417C467.383 416.704 472.809 416.33 481 415.4C470.844 414.187 464.951 413.908 461.443 410.883C458.476 407.435 458.16 401.709 457 392Z" fill="#916D4F"/>
</g>
<g clip-path="url(#clip1_584_69)">
<path d="M135 173C134.099 180.174 133.8 184.73 132.039 187.671C129.16 191.326 124.169 191.674 115 192.5C124.02 193.564 128.897 193.795 131.785 197.143C133.943 200.107 134.308 204.693 135 212C136.176 202.523 136.36 197.737 140.622 195.014C143.653 193.587 148.174 193.275 155 192.5C146.536 191.489 141.626 191.256 138.702 188.736C136.23 185.862 135.967 181.091 135 173Z" fill="#916D4F"/>
</g>
<defs>
<clipPath id="clip0_584_69">
<rect width="552" height="552" fill="white" transform="translate(24 24)"/>
</clipPath>
<clipPath id="clip1_584_69">
<rect width="40" height="39" fill="white" transform="translate(115 173)"/>
</clipPath>
</defs>
</svg>
