<svg width="81" height="40" viewBox="0 0 81 40" fill="none" xmlns="http://www.w3.org/2000/svg">
<path d="M52.4713 27.8144C52.1888 27.1452 52.3283 26.3717 52.8266 25.8433L58.3225 20.0174C59.3525 18.9254 59.7143 17.4139 59.2902 15.9741C58.8663 14.5342 57.7432 13.46 56.286 13.1004L48.3652 11.146C47.8164 11.0105 47.3678 10.6376 47.1346 10.123L44.0608 3.34013C43.3756 1.8281 41.9186 0.888916 40.2588 0.888916C38.5988 0.888916 37.1418 1.82826 36.4568 3.34013L33.3829 10.1228C33.1496 10.6376 32.7011 11.0105 32.1525 11.146L24.2316 13.1004C22.7743 13.46 21.6511 14.5343 21.2272 15.9741C20.8033 17.4139 21.1651 18.9254 22.1951 20.0174L27.6908 25.8433C28.1892 26.3717 28.3286 27.1452 28.0461 27.8142L25.7275 33.3043C25.0667 34.8694 25.3884 36.6017 26.5673 37.825C27.378 38.6663 28.4441 39.1113 29.5473 39.1111C30.0484 39.1111 30.5574 39.0194 31.0534 38.8311L31.8824 38.5168C32.487 38.2875 32.7912 37.6116 32.562 37.0071C32.3329 36.4025 31.6569 36.0982 31.0524 36.3275L30.2232 36.642C29.5149 36.9103 28.7788 36.7453 28.2532 36.2001C27.7277 35.6549 27.5898 34.9128 27.8844 34.2151L30.2029 28.7248C30.8463 27.2014 30.5287 25.4396 29.3939 24.2365L23.8982 18.4107C23.446 17.9312 23.2869 17.2675 23.4732 16.6351C23.6594 16.0028 24.1526 15.5311 24.7924 15.3732L32.7135 13.4188C33.9628 13.1102 34.9841 12.2612 35.5152 11.0892L38.5891 4.30632C38.8946 3.63249 39.5188 3.22993 40.2586 3.22993C40.9985 3.22993 41.6227 3.63233 41.9281 4.30632L45.002 11.0893C45.5332 12.2612 46.5545 13.1104 47.804 13.4188L55.7248 15.3732C56.3648 15.5311 56.858 16.0028 57.0441 16.6351C57.2302 17.2675 57.0714 17.9312 56.6189 18.4107L51.123 24.2367C49.9883 25.4396 49.6708 27.2013 50.314 28.725L52.6326 34.2151C52.9273 34.9128 52.7894 35.6549 52.2639 36.2001C51.7385 36.7456 51.0017 36.9108 50.2939 36.6418L41.739 33.3963C40.7842 33.0341 39.7326 33.0341 38.7777 33.3963L35.728 34.5532C35.1235 34.7826 34.8194 35.4585 35.0487 36.063C35.278 36.6674 35.9539 36.9718 36.5584 36.7425L39.6079 35.5856C40.0271 35.4264 40.4892 35.4264 40.9086 35.5856L49.4632 38.831C51.0515 39.4339 52.7705 39.0482 53.9498 37.825C55.1287 36.6015 55.4503 34.8693 54.7894 33.3043L52.4713 27.8144Z" fill="#916D4F"/>
<path d="M20.683 22.0627L16.252 20.9693C16.0993 20.9317 15.9748 20.828 15.9098 20.6849L14.1902 16.8904C13.7222 15.8577 12.7272 15.2162 11.5935 15.2162C10.4598 15.2162 9.46477 15.8576 8.99682 16.8904L7.27719 20.6849C7.21226 20.828 7.0877 20.9317 6.93504 20.9693L2.50384 22.0627C1.50862 22.3082 0.741443 23.0419 0.451899 24.0254C0.162354 25.0089 0.409599 26.0413 1.11293 26.7869L4.18726 30.046C4.32586 30.1929 4.36473 30.408 4.28606 30.594L2.98912 33.6654C2.53771 34.7345 2.75748 35.9175 3.56259 36.7528C4.11624 37.3274 4.84439 37.6313 5.59799 37.6313C5.94029 37.6313 6.2879 37.5687 6.62661 37.4401L11.4123 35.6245L11.4124 35.6243C11.5289 35.5801 11.6572 35.58 11.7739 35.6245L16.5596 37.4401C17.6443 37.8512 18.8185 37.5882 19.6238 36.7528C20.4289 35.9173 20.6487 34.7341 20.1973 33.6654L18.9002 30.5942C18.8217 30.4081 18.8605 30.1929 18.999 30.046L22.0736 26.7869C22.777 26.0411 23.0242 25.0086 22.7345 24.0254C22.4454 23.0419 21.6782 22.3082 20.683 22.0627ZM20.3708 25.1803L17.2962 28.4396C16.5214 29.2612 16.3044 30.4645 16.7438 31.505L18.0409 34.5763C18.1547 34.8459 18.0255 35.0377 17.9384 35.1281C17.8511 35.2185 17.6643 35.3549 17.3905 35.251L12.6048 33.4355C12.2787 33.3117 11.9361 33.2499 11.5935 33.2499C11.2509 33.2499 10.9081 33.3117 10.5822 33.4355L10.5824 33.4353L5.79653 35.251C5.52338 35.3551 5.33607 35.2186 5.24882 35.1281C5.16172 35.0377 5.03248 34.8457 5.14627 34.5763L6.44321 31.505C6.8826 30.4645 6.66579 29.2612 5.89065 28.4394L2.81617 25.1803C2.64135 24.995 2.66711 24.7914 2.69802 24.6866C2.72892 24.5817 2.81758 24.3969 3.06482 24.3357L7.49603 23.2423C8.34936 23.0317 9.04692 22.4518 9.40967 21.6513L11.1293 17.8567C11.2473 17.5964 11.4708 17.5575 11.5935 17.5575C11.7162 17.5575 11.9397 17.5964 12.0577 17.8567L13.7773 21.6513C14.1401 22.4518 14.8377 23.0319 15.691 23.2423L20.1222 24.3357C20.3693 24.3969 20.4581 24.5817 20.489 24.6866C20.5199 24.7914 20.5455 24.9951 20.3708 25.1803Z" fill="#916D4F"/>
<path d="M79.56 26.787C80.5862 25.6993 80.5916 23.987 79.5724 22.8883C79.1324 22.4144 78.3919 22.3867 77.9178 22.8265C77.4439 23.2662 77.4162 24.0069 77.856 24.481C78.0149 24.6522 78.0692 24.9553 77.857 25.1803L74.7828 28.4394C74.0075 29.2611 73.7907 30.4643 74.2301 31.505L75.5272 34.5763C75.641 34.8459 75.5117 35.0377 75.4248 35.1281C75.3378 35.2185 75.151 35.3552 74.8769 35.251L70.0911 33.4352C69.4391 33.1881 68.7211 33.1878 68.0688 33.4352L63.2831 35.251C63.0096 35.3548 62.8225 35.2185 62.7352 35.1281C62.648 35.0377 62.5189 34.8457 62.6327 34.5763L63.9298 31.505C64.3692 30.4645 64.1524 29.2612 63.3774 28.4396L60.3026 25.1803C60.1278 24.995 60.1535 24.7916 60.1843 24.6867C60.2152 24.5818 60.304 24.397 60.5512 24.3358L64.9818 23.2424C65.8355 23.032 66.533 22.4521 66.8961 21.6513L68.6157 17.8567C68.7337 17.5964 68.9572 17.5575 69.0801 17.5575C69.2029 17.5575 69.4263 17.5964 69.5443 17.8567L71.2641 21.6513C71.627 22.4523 72.3247 23.0322 73.1774 23.2423L73.5339 23.3303C74.1611 23.4858 74.7961 23.1023 74.9512 22.4746C75.1062 21.847 74.7232 21.2125 74.0955 21.0573L73.7384 20.9691C73.5861 20.9317 73.4617 20.828 73.3967 20.6849L71.6769 16.8904C71.2091 15.8579 70.2141 15.2162 69.0804 15.2162H69.0802C67.9464 15.2162 66.9514 15.8576 66.4834 16.8904L64.7638 20.6849C64.6988 20.828 64.5743 20.9317 64.4216 20.9693L59.9906 22.0629C58.9952 22.3084 58.2282 23.042 57.9386 24.0255C57.6492 25.0089 57.8963 26.0413 58.5997 26.7869L61.6743 30.0462C61.8128 30.1929 61.8515 30.408 61.773 30.594L60.4759 33.6656C60.0244 34.7345 60.2444 35.9175 61.0495 36.7528C61.8547 37.5884 63.0288 37.8514 64.1137 37.4401L68.8992 35.6243C69.0159 35.5801 69.1444 35.5801 69.2608 35.6243L74.0465 37.4401C74.3854 37.5686 74.7328 37.6313 75.0751 37.6313C75.8287 37.6313 76.5569 37.3274 77.1107 36.7528C77.9158 35.9173 78.1354 34.7343 77.6842 33.6654L76.3871 30.594C76.3086 30.4081 76.3473 30.1932 76.486 30.0462L79.56 26.787Z" fill="#916D4F"/>
</svg>
