<svg width="60" height="61" viewBox="0 0 60 61" fill="none" xmlns="http://www.w3.org/2000/svg">
<path d="M49.476 16.244C49.284 15.038 48.228 14.138 47.01 14.138C47.004 14.138 46.992 14.138 46.986 14.138C39.414 14.216 32.112 16.916 26.31 21.752C26.13 19.628 25.524 17.558 24.522 15.662C23.154 13.076 21.096 10.916 18.582 9.41603C17.568 8.81003 16.302 8.97803 15.51 9.82403C11.742 13.838 9.71402 19.082 9.80402 24.59C9.88802 29.894 11.928 34.886 15.564 38.72C15.222 40.028 14.964 41.36 14.79 42.716C14.718 43.274 15.108 43.784 15.672 43.862C15.714 43.868 15.762 43.868 15.804 43.868C16.308 43.868 16.746 43.496 16.812 42.98C16.998 41.57 17.274 40.19 17.646 38.852C17.688 38.762 17.712 38.672 17.724 38.576C21.402 25.682 33.294 16.322 47.022 16.178C47.022 16.178 47.022 16.178 47.028 16.178C47.244 16.178 47.448 16.352 47.484 16.562C48.24 21.332 48.264 26.168 47.556 30.944C47.544 30.98 47.532 31.016 47.526 31.052C46.116 37.106 42.18 42.278 36.714 45.236C31.896 47.852 26.286 48.536 21.024 47.21C22.8 46.04 24.504 44.756 26.13 43.358C30.42 39.668 34.026 35.306 36.846 30.404C37.128 29.918 36.96 29.294 36.468 29.012C35.982 28.73 35.358 28.898 35.076 29.39C30.96 36.5 25.074 42.44 18.078 46.628C18.048 46.64 18.024 46.658 17.994 46.676C15.75 48.014 13.398 49.166 10.95 50.126C10.428 50.33 10.164 50.924 10.374 51.446C10.53 51.848 10.914 52.094 11.322 52.094C11.448 52.094 11.574 52.07 11.694 52.022C14.118 51.074 16.446 49.946 18.678 48.644C21.162 49.484 23.742 49.904 26.316 49.904C30.24 49.904 34.146 48.938 37.662 47.024C43.578 43.82 47.862 38.24 49.44 31.706C49.476 31.622 49.506 31.532 49.518 31.436C50.292 26.396 50.274 21.284 49.476 16.244ZM20.046 28.7C20.034 27.608 19.986 26.594 19.902 25.622C19.716 23.546 19.362 21.362 18.822 18.932C18.702 18.38 18.156 18.038 17.604 18.158C17.052 18.278 16.71 18.824 16.83 19.376C17.352 21.716 17.694 23.816 17.868 25.802C18.036 27.704 18.054 29.798 17.916 32.372C17.268 33.68 16.704 35.03 16.236 36.422C10.092 29.09 10.302 18.332 16.986 11.216C17.118 11.072 17.346 11.054 17.532 11.162C21.906 13.766 24.48 18.482 24.318 23.546C22.71 25.124 21.282 26.852 20.046 28.7Z" fill="#916D4F"/>
</svg>
