<svg width="60" height="61" viewBox="0 0 60 61" fill="none" xmlns="http://www.w3.org/2000/svg">
<path d="M30 59.3937C29.8856 59.3937 29.7712 59.3797 29.6587 59.3515C4.84781 53.149 3.30281 24.8046 3.42 16.2659C3.44718 14.3525 4.90312 12.725 6.80625 12.4775C17.6353 11.0778 25.1653 4.9859 27.9 2.43121C29.0775 1.33152 30.9216 1.33152 32.1 2.43121C34.8337 4.9859 42.3637 11.0778 53.1928 12.4775C55.0959 12.724 56.5519 14.3525 56.5791 16.265C56.6972 24.8037 55.155 53.1472 30.3403 59.3506C30.2287 59.3797 30.1144 59.3937 30 59.3937ZM30 4.4159C29.9353 4.4159 29.8706 4.43934 29.82 4.48715C26.8866 7.22746 18.8062 13.7637 7.16718 15.2675C6.64125 15.335 6.24 15.7812 6.2325 16.3043C6.12281 24.2815 7.52062 50.6553 30 56.5362C52.4822 50.6553 53.8781 24.2806 53.7675 16.3043C53.76 15.7812 53.3578 15.335 52.8328 15.2675C41.1928 13.7628 33.1134 7.22746 30.18 4.48715C30.1294 4.43934 30.0647 4.4159 30 4.4159Z" fill="#916D4F"/>
<path d="M41.4881 21.8674C40.8394 21.2402 39.8025 21.2468 39.1809 21.8796L25.3781 35.6824L20.8434 31.1656C20.7337 31.0493 20.4065 30.7774 19.679 30.7634C19.214 30.7634 18.7622 30.9124 18.4847 31.1665C18.2025 31.4712 18.0478 31.8612 18.0478 32.2634C18.0478 32.7237 18.209 33.1034 18.5381 33.4231L24.2259 39.1296C24.524 39.4381 24.9 39.5946 25.3415 39.5946C25.7794 39.5946 26.2078 39.4231 26.519 39.1221L41.4928 24.1774C42.1059 23.5531 42.1069 22.5199 41.4881 21.8674Z" fill="#916D4F"/>
</svg>
