<svg width="61" height="61" viewBox="0 0 61 61" fill="none" xmlns="http://www.w3.org/2000/svg">
<g clip-path="url(#clip0_98_169)">
<path d="M33.1928 5.62742C33.8399 5.62742 34.3647 5.10277 34.3647 4.45555V1.67188C34.3647 1.02465 33.8399 0.5 33.1928 0.5C32.5457 0.5 32.0209 1.02465 32.0209 1.67188V4.45555C32.0209 5.10277 32.5457 5.62742 33.1928 5.62742Z" fill="#916D4F"/>
<path d="M55.9331 41.2543C55.9331 39.8129 55.2927 38.5183 54.2814 37.6402C55.2927 36.762 55.9331 35.4676 55.9331 34.0262C55.9331 31.3871 53.7861 29.2402 51.1471 29.2402H36.9147L38.5575 23.039C39.9141 17.9219 37.5216 13.1407 34.527 11.6452C32.7702 10.7675 31.3595 10.6277 30.2142 11.2176C28.6502 12.0232 28.1568 13.8992 27.8564 15.8055C26.7154 23.011 25.0083 27.8787 19.7153 31.8868C19.345 30.4985 18.0772 29.4726 16.5738 29.4726H8.6515C6.85876 29.4726 5.40013 30.9311 5.40013 32.724V56.302C5.40013 58.0947 6.85865 59.5534 8.6515 59.5534H16.574C18.0853 59.5534 19.3589 58.5167 19.7216 57.1173C23.2323 59.1173 28.6276 60.5 32.0501 60.5H48.3966C51.0356 60.5 53.1826 58.353 53.1826 55.7141C53.1826 54.7518 52.897 53.8548 52.4064 53.1036C54.4364 52.5491 55.9331 50.6873 55.9331 48.4825C55.9331 47.0411 55.2927 45.7466 54.2814 44.8685C55.2927 43.9903 55.9331 42.6957 55.9331 41.2543ZM17.4816 56.302C17.4816 56.7939 17.066 57.2096 16.5741 57.2096H8.6515C8.15955 57.2096 7.74388 56.7941 7.74388 56.302V32.724C7.74388 32.232 8.15943 31.8164 8.6515 31.8164H16.574C17.0659 31.8164 17.4815 32.2319 17.4815 32.724V56.302H17.4816ZM46.2209 38.8121H51.1471C52.4937 38.8121 53.5894 39.9077 53.5894 41.2543C53.5894 42.6009 52.4937 43.6965 51.1471 43.6965H46.2209C45.5738 43.6965 45.049 44.2211 45.049 44.8684C45.049 45.5156 45.5738 46.0402 46.2209 46.0402H51.1471C52.4937 46.0402 53.5894 47.1358 53.5894 48.4824C53.5894 49.8309 52.4937 50.928 51.1471 50.928H48.3966H46.2209C45.5738 50.928 45.049 51.4527 45.049 52.0999C45.049 52.7471 45.5738 53.2718 46.2209 53.2718H48.3966C49.7432 53.2718 50.8389 54.3673 50.8389 55.7139C50.8389 57.0605 49.7433 58.1562 48.3967 58.1562H32.0502C28.68 58.1562 22.6981 56.5098 19.8253 54.4053V34.6823C23.0686 32.5167 25.3468 30.0835 26.9623 27.0643C28.4401 24.3021 29.4 21.0445 30.1717 16.1712C30.2793 15.488 30.5651 13.6735 31.2876 13.3013C31.7033 13.087 32.4819 13.2435 33.4798 13.7422C35.3746 14.6884 37.406 18.2368 36.2919 22.4387L34.259 30.112C34.0654 30.8429 34.6358 31.584 35.3918 31.584H51.147C52.4936 31.584 53.5893 32.6796 53.5893 34.0262C53.5893 35.3728 52.4936 36.4684 51.147 36.4684H46.2208C45.5736 36.4684 45.0489 36.993 45.0489 37.6402C45.0489 38.2875 45.5738 38.8121 46.2209 38.8121Z" fill="#916D4F"/>
<path d="M12.8868 35.9734C12.2395 35.9734 11.7149 36.5013 11.7149 37.1485C11.7149 37.7958 12.2395 38.3204 12.8868 38.3204C13.534 38.3204 14.0586 37.7958 14.0586 37.1485V37.1419C14.0586 36.4948 13.534 35.9734 12.8868 35.9734Z" fill="#916D4F"/>
<path d="M19.7161 6.27895L21.7989 8.12583C22.022 8.32364 22.2995 8.4209 22.5759 8.4209C22.8995 8.4209 23.2217 8.28766 23.4532 8.02657C23.8827 7.54235 23.8382 6.80161 23.354 6.37223L21.2712 4.52536C20.787 4.09586 20.0463 4.1404 19.6168 4.62461C19.1875 5.10895 19.2319 5.84958 19.7161 6.27895Z" fill="#916D4F"/>
<path d="M43.8097 8.42103C44.0861 8.42103 44.3637 8.32376 44.5868 8.12595L46.6696 6.27907C47.1538 5.8497 47.1983 5.10907 46.769 4.62474C46.3396 4.14052 45.5992 4.09599 45.1146 4.52548L43.0319 6.37235C42.5476 6.80173 42.5031 7.54235 42.9325 8.02669C43.164 8.28778 43.4861 8.42103 43.8097 8.42103Z" fill="#916D4F"/>
<path d="M15.947 16.7112L18.7307 16.8274C18.7473 16.8281 18.764 16.8285 18.7805 16.8285C19.4052 16.8285 19.9241 16.3355 19.9505 15.7055C19.9774 15.0588 19.4752 14.5127 18.8285 14.4857L16.0449 14.3694C15.3983 14.3428 14.852 14.8446 14.8251 15.4914C14.7981 16.1381 15.3004 16.6842 15.947 16.7112Z" fill="#916D4F"/>
<path d="M46.4352 15.7055C46.4616 16.3355 46.9805 16.8286 47.6052 16.8286C47.6217 16.8286 47.6383 16.8282 47.6549 16.8275L50.4386 16.7112C51.0853 16.6843 51.5876 16.1381 51.5605 15.4914C51.5335 14.8448 50.9862 14.3436 50.3408 14.3695L47.5572 14.4857C46.9105 14.5128 46.4083 15.0589 46.4352 15.7055Z" fill="#916D4F"/>
</g>
<defs>
<clipPath id="clip0_98_169">
<rect width="60" height="60" fill="white" transform="translate(0.666687 0.5)"/>
</clipPath>
</defs>
</svg>
