<svg width="250" height="251" viewBox="0 0 250 251" fill="none" xmlns="http://www.w3.org/2000/svg">
<path d="M250 137.543C222.843 135.882 221.158 112.007 221.329 104.168H221.084V49.1098C221.084 49.1098 217.099 15.2681 249.624 13.2716V0H163.35C163.35 1.98828 163.35 14.5971 163.35 14.5971C163.35 14.5971 189.893 10.6124 191.89 43.1367V127.471H185.843C185.843 127.471 151.568 130.196 150.005 98.9314H136.733V151.813H190.761C190.302 158.784 189.885 165.24 189.893 165.24C190.09 165.24 188.519 173.512 188.404 173.963C186.604 180.958 183.56 187.643 179.469 193.592C170.395 206.757 156.289 215.152 141.135 219.546C126.17 223.874 112.26 222.131 98.0477 215.978C81.1351 208.655 67.8144 194.95 62.185 177.301C60.9413 173.398 60.0085 169.34 59.7303 165.24C59.7303 165.24 59.313 158.784 58.8548 151.813H112.898V98.9314H99.6269C98.0641 130.188 63.7887 127.471 63.7887 127.471H57.742V43.1367C59.7303 10.6205 86.2817 14.5971 86.2817 14.5971C86.2817 14.5971 86.2817 1.98828 86.2817 0H0V13.2716C32.5162 15.2599 28.5396 49.1098 28.5396 49.1098V108.734C27.746 118.765 23.0248 136.128 0.00819023 137.535V150.807H28.5396V160.593C30.9861 184.902 41.1076 207.804 59.583 224.12C71.7418 234.855 86.5926 242.947 102.188 247.39C118.413 252.013 135.891 250.908 151.797 245.582C154.301 244.747 156.78 243.831 159.226 242.841C178.152 235.182 195.122 222.622 206.225 205.3C214.825 191.89 219.497 176.368 221.092 160.585V150.799H250V137.543Z" fill="black"/>
</svg>
