<svg width="231" height="59" viewBox="0 0 231 59" fill="none" xmlns="http://www.w3.org/2000/svg">
<path d="M47.68 26.25C42.5 25.93 42.17 21.38 42.21 19.88H42.16V9.38C42.16 9.38 41.4 2.92 47.61 2.54V0.0100002H31.15C31.15 0.39 31.15 2.8 31.15 2.8C31.15 2.8 36.22 2.04 36.6 8.25V24.34H35.45C35.45 24.34 28.91 24.86 28.61 18.89H26.08V28.98H36.39C36.3 30.31 36.22 31.54 36.23 31.54C36.27 31.54 35.97 33.12 35.95 33.2C35.61 34.53 35.03 35.81 34.24 36.95C32.51 39.46 29.82 41.07 26.92 41.9C24.06 42.73 21.41 42.39 18.7 41.22C15.47 39.82 12.93 37.21 11.86 33.84C11.62 33.1 11.44 32.32 11.39 31.54C11.39 31.54 11.31 30.31 11.22 28.98H21.53V18.89H19C18.7 24.86 12.16 24.34 12.16 24.34H11.01V8.24C11.39 2.03 16.46 2.79 16.46 2.79C16.46 2.79 16.46 0.38 16.46 0H0V2.53C6.21 2.91 5.44998 9.37 5.44998 9.37V20.75C5.29998 22.66 4.4 25.98 0 26.25V28.78H5.44998V30.65C5.91998 35.29 7.85 39.66 11.37 42.77C13.69 44.82 16.52 46.36 19.5 47.21C22.6 48.09 25.93 47.88 28.97 46.87C29.45 46.71 29.92 46.54 30.39 46.35C34 44.89 37.24 42.49 39.36 39.19C41 36.63 41.89 33.67 42.2 30.66V28.79H47.72V26.25H47.68Z" fill="#916D4F"/>
<path d="M147.57 28.7203H130.9C131.45 28.5103 131.87 28.1603 132.17 27.6703C132.47 27.1803 132.62 26.4303 132.62 25.4203V8.88031C132.62 7.87031 132.47 7.13031 132.17 6.64031C131.87 6.16031 131.45 5.80031 130.9 5.57031H147.57V10.6103C147.49 10.3403 147.34 10.0103 147.12 9.63031C146.9 9.25031 146.66 8.89031 146.38 8.53031C146.11 8.17031 145.81 7.87031 145.5 7.62031C145.19 7.37031 144.89 7.24031 144.62 7.24031H137.9C137.82 7.22031 137.71 7.24031 137.57 7.30031C137.49 7.34031 137.41 7.42031 137.32 7.52031C137.24 7.63031 137.2 7.77031 137.2 7.96031V15.9603C137.34 15.9803 137.49 15.9903 137.65 15.9903C137.81 15.9903 137.98 15.9903 138.14 15.9903H140.31C140.88 15.9903 141.46 15.9603 142.05 15.9103C142.64 15.8603 143.18 15.7603 143.69 15.6103C144.2 15.4603 144.64 15.2603 145.02 15.0103C145.4 14.7603 145.68 14.4203 145.84 14.0003V19.2603C145.68 18.8403 145.4 18.5003 145 18.2503C144.6 18.0003 144.15 17.8003 143.63 17.6703C143.11 17.5303 142.57 17.4403 141.99 17.4003C141.42 17.3603 140.87 17.3403 140.35 17.3403H137.2V26.2203C137.2 26.4503 137.24 26.6203 137.32 26.7403C137.4 26.8603 137.48 26.9303 137.57 26.9803C137.68 27.0403 137.79 27.0703 137.9 27.0703H144.62C145.03 27.0703 145.44 26.9403 145.85 26.6903C146.26 26.4403 146.66 26.1303 147.04 25.7803C147.42 25.4203 147.76 25.0503 148.06 24.6603C148.36 24.2703 148.59 23.9403 148.76 23.6703L147.57 28.7203Z" fill="#916D4F"/>
<path d="M169.81 28.7203H153.67C153.81 28.6203 153.98 28.4703 154.18 28.2903C154.38 28.1103 154.58 27.8903 154.75 27.6303C154.93 27.3703 155.08 27.0503 155.2 26.6903C155.32 26.3203 155.38 25.9003 155.38 25.4103V8.88031C155.38 8.40031 155.32 7.97031 155.2 7.60031C155.08 7.23031 154.93 6.92031 154.75 6.66031C154.57 6.40031 154.38 6.18031 154.18 6.00031C153.98 5.82031 153.8 5.68031 153.67 5.57031H159.98V27.3603H165.39C166.37 27.1703 167.18 26.8203 167.81 26.3203C168.44 25.8203 168.95 25.2603 169.35 24.6503C169.75 24.0403 170.06 23.4403 170.29 22.8403C170.52 22.2403 170.75 21.7403 170.97 21.3403L169.81 28.7203Z" fill="#916D4F"/>
<path d="M78.77 28.7203H62.63C62.77 28.6203 62.94 28.4703 63.14 28.2903C63.34 28.1103 63.54 27.8903 63.71 27.6303C63.89 27.3703 64.04 27.0503 64.16 26.6903C64.28 26.3203 64.34 25.9003 64.34 25.4103V8.88031C64.34 8.40031 64.28 7.97031 64.16 7.60031C64.04 7.23031 63.89 6.92031 63.71 6.66031C63.53 6.40031 63.34 6.18031 63.14 6.00031C62.94 5.82031 62.76 5.68031 62.63 5.57031H68.94V27.3603H74.35C75.33 27.1703 76.14 26.8203 76.77 26.3203C77.4 25.8203 77.91 25.2603 78.31 24.6503C78.71 24.0403 79.02 23.4403 79.25 22.8403C79.48 22.2403 79.71 21.7403 79.93 21.3403L78.77 28.7203Z" fill="#916D4F"/>
<path d="M186.32 5.58008V20.7201C186.32 22.4001 186.48 23.7101 186.81 24.6601C187.52 26.4001 188.73 27.2701 190.45 27.2701C191.6 27.2701 192.5 27.0301 193.15 26.5501C193.81 26.0701 194.32 25.3401 194.71 24.3801C195.15 23.3901 195.36 21.9301 195.36 20.0001V9.73008C195.36 9.16008 195.31 8.68008 195.2 8.27008C195.09 7.86008 194.93 7.49008 194.71 7.17008C194.49 6.84008 194.2 6.56008 193.83 6.30008C193.46 6.05008 193.03 5.81008 192.54 5.58008H196.92V19.9701C196.92 22.8201 196.32 25.0301 195.12 26.5801C193.97 28.1101 192.1 28.8801 189.51 28.8801C186.18 28.8801 183.9 27.7401 182.67 25.4501C182.02 24.2301 181.69 22.6501 181.69 20.7001V9.48008C181.69 8.79008 181.61 8.22008 181.46 7.78008C181.31 7.34008 181.12 6.98008 180.89 6.71008C180.66 6.44008 180.4 6.22008 180.11 6.05008C179.82 5.88008 179.56 5.72008 179.31 5.58008H186.32Z" fill="#916D4F"/>
<path d="M218.63 9.35031C218.32 8.59031 217.89 7.94031 217.36 7.38031C216.83 6.82031 216.21 6.38031 215.5 6.06031C214.79 5.73031 214.03 5.57031 213.21 5.57031C212.55 5.57031 211.92 5.62031 211.31 5.73031C211.3 5.73031 211.3 5.73031 211.29 5.73031V6.63031C211.64 6.67031 211.97 6.80031 212.29 7.02031C212.69 7.29031 213.03 7.66031 213.31 8.12031C213.6 8.58031 213.83 9.12031 214.01 9.74031C214.19 10.3603 214.28 11.0303 214.28 11.7403C214.28 12.4803 214.19 13.1503 214.01 13.7703C213.83 14.3903 213.6 14.9303 213.31 15.3903C213.02 15.8503 212.68 16.2103 212.29 16.4803C211.97 16.6903 211.63 16.8103 211.29 16.8603V17.9803H213.22C214.04 17.9803 214.8 17.8203 215.51 17.4903C216.22 17.1603 216.84 16.7203 217.37 16.1503C217.9 15.5803 218.33 14.9203 218.64 14.1703C218.95 13.4103 219.11 12.6103 219.11 11.7503C219.1 10.9103 218.95 10.1103 218.63 9.35031Z" fill="#916D4F"/>
<path d="M203.37 26.6901C203.25 27.0601 203.1 27.3801 202.92 27.6501C202.74 27.9201 202.56 28.1501 202.37 28.3301C202.18 28.5101 202 28.6401 201.84 28.7201H208.13V5.58008H201.84C202 5.71008 202.19 5.86008 202.39 6.04008C202.59 6.22008 202.79 6.43008 202.96 6.69008C203.14 6.94008 203.28 7.25008 203.39 7.60008C203.5 7.96008 203.55 8.39008 203.55 8.89008V25.4201C203.56 25.8901 203.5 26.3201 203.37 26.6901Z" fill="#916D4F"/>
<path d="M123.29 7.31012C123.48 7.69012 123.6 8.09012 123.66 8.51012C123.66 8.62012 123.65 8.73012 123.64 8.84012C123.63 8.96012 123.58 9.15012 123.5 9.42012C123.42 9.69012 123.29 10.0801 123.13 10.5901C122.97 11.0901 122.73 11.7901 122.41 12.6701C122.1 13.5501 121.71 14.6601 121.24 16.0101C120.99 16.7301 120.91 17.1201 120.6 18.0101L121.25 19.7301L125.99 5.62012H121.2C121.77 5.79012 122.22 6.03012 122.55 6.36012C122.88 6.67012 123.12 6.99012 123.29 7.31012Z" fill="#916D4F"/>
<path d="M113.83 5.61035H107.61C108.18 5.90035 108.67 6.36035 109.06 6.96035C109.46 7.57035 109.76 8.18035 109.98 8.79035L117.43 28.7204H118.13L120.21 22.6104L113.83 5.61035Z" fill="#916D4F"/>
<path d="M101.99 24.6701C101.69 25.0601 101.35 25.4301 100.97 25.7901C100.59 26.1501 100.19 26.4501 99.78 26.7001C99.37 26.9501 98.96 27.0801 98.55 27.0801H91.83C91.72 27.0801 91.61 27.0501 91.5 26.9901C91.42 26.9501 91.34 26.8701 91.25 26.7501C91.17 26.6301 91.13 26.4601 91.13 26.2301V17.3501H94.28C94.8 17.3501 95.34 17.3701 95.92 17.4101C96.49 17.4501 97.04 17.5401 97.56 17.6801C98.08 17.8201 98.54 18.0101 98.93 18.2601C99.33 18.5101 99.61 18.8501 99.77 19.2701V14.0101C99.61 14.4301 99.33 14.7701 98.95 15.0201C98.57 15.2701 98.12 15.4701 97.62 15.6201C97.11 15.7701 96.57 15.8701 95.98 15.9201C95.39 15.9701 94.81 16.0001 94.24 16.0001H92.07C91.91 16.0001 91.74 16.0001 91.58 16.0001C91.42 16.0001 91.27 15.9901 91.13 15.9701V7.97008C91.13 7.78008 91.17 7.63008 91.25 7.53008C91.33 7.43008 91.41 7.35008 91.5 7.31008C91.64 7.25008 91.75 7.23008 91.83 7.25008H98.55C98.82 7.25008 99.12 7.38008 99.43 7.63008C99.74 7.88008 100.04 8.19008 100.31 8.54008C100.58 8.90008 100.83 9.26008 101.05 9.64008C101.27 10.0201 101.42 10.3401 101.5 10.6201V5.58008H85.94V6.33008C86.26 6.60008 86.54 6.89008 86.68 7.11008C86.98 7.59008 87.13 8.34008 87.13 9.35008V24.9701C87.13 25.9801 86.98 26.7301 86.68 27.2201C86.54 27.4401 86.26 27.7301 85.94 28.0001V28.7301H101.5L102.69 23.6901C102.52 23.9501 102.29 24.2801 101.99 24.6701Z" fill="#916D4F"/>
<path d="M116.74 42.9701H113.16V42.6201C113.48 42.6201 113.72 42.5901 113.87 42.5401C114.03 42.4901 114.14 42.3801 114.2 42.2101C114.26 42.0501 114.29 41.8101 114.29 41.4901V36.7401C114.29 36.4301 114.26 36.2001 114.2 36.0501C114.14 35.9001 114.03 35.8001 113.87 35.7501C113.71 35.7001 113.47 35.6801 113.16 35.6801V35.3301H116.3C116.99 35.3301 117.54 35.4001 117.96 35.5401C118.38 35.6801 118.68 35.8901 118.87 36.1601C119.06 36.4301 119.15 36.7501 119.15 37.1401C119.15 37.6601 119 38.0501 118.69 38.3101C118.38 38.5701 117.98 38.7701 117.5 38.9001V38.9501C117.83 39.0001 118.15 39.1101 118.46 39.2501C118.77 39.4001 119.02 39.6001 119.22 39.8701C119.42 40.1401 119.52 40.4801 119.52 40.9101C119.52 41.5701 119.27 42.0801 118.78 42.4301C118.29 42.7901 117.61 42.9701 116.74 42.9701ZM115.36 35.8201V38.7601H116.15C116.86 38.7601 117.34 38.6401 117.6 38.3901C117.86 38.1501 117.99 37.7601 117.99 37.2301C117.99 36.7701 117.84 36.4201 117.55 36.1601C117.26 35.9001 116.76 35.7801 116.05 35.7801C115.94 35.7801 115.83 35.7801 115.71 35.7901C115.59 35.8001 115.48 35.8001 115.36 35.8201ZM116.2 42.5401C116.45 42.5401 116.7 42.5201 116.94 42.4901C117.18 42.4601 117.41 42.3901 117.62 42.2901C117.83 42.1901 117.99 42.0301 118.11 41.8101C118.23 41.5901 118.3 41.3001 118.3 40.9301C118.3 40.4901 118.2 40.1501 117.99 39.9001C117.78 39.6501 117.52 39.4901 117.2 39.3901C116.88 39.2901 116.54 39.2501 116.17 39.2501H115.36V42.5001C115.5 42.5101 115.64 42.5201 115.78 42.5201C115.92 42.5201 116.06 42.5401 116.2 42.5401Z" fill="#916D4F"/>
<path d="M128.88 42.9698H122.67V42.6198C122.99 42.6198 123.23 42.5998 123.38 42.5598C123.54 42.5198 123.65 42.4198 123.71 42.2698C123.77 42.1198 123.8 41.8998 123.8 41.5998V36.7498C123.8 36.4598 123.77 36.2298 123.71 36.0798C123.65 35.9198 123.54 35.8198 123.38 35.7698C123.22 35.7198 122.98 35.6898 122.67 35.6898V35.3398H128.77L128.84 37.2498H128.47C128.42 36.8598 128.33 36.5698 128.22 36.3698C128.11 36.1698 127.93 36.0398 127.67 35.9698C127.42 35.8998 127.05 35.8698 126.57 35.8698H124.86V38.8198H126.22C126.58 38.8198 126.85 38.7898 127.03 38.7298C127.22 38.6698 127.34 38.5498 127.41 38.3798C127.48 38.2098 127.51 37.9698 127.51 37.6598H127.9V40.3598H127.53C127.53 40.0398 127.49 39.8098 127.43 39.6498C127.36 39.4998 127.23 39.3998 127.05 39.3498C126.86 39.2998 126.59 39.2798 126.24 39.2798H124.88V42.4798H126.38C126.83 42.4798 127.19 42.4598 127.47 42.4198C127.74 42.3798 127.96 42.2998 128.12 42.1798C128.28 42.0598 128.41 41.8998 128.52 41.6798C128.63 41.4598 128.73 41.1798 128.85 40.8298H129.22L128.88 42.9698Z" fill="#916D4F"/>
<path d="M134.33 42.97H131.89V42.62C132.11 42.62 132.28 42.58 132.41 42.52C132.54 42.45 132.67 42.31 132.79 42.1C132.91 41.89 133.07 41.56 133.25 41.12L135.71 35.29H136.19L138.94 41.6C139.11 41.98 139.28 42.25 139.43 42.4C139.59 42.56 139.82 42.63 140.13 42.63V42.98H137V42.63C137.12 42.63 137.24 42.62 137.36 42.61C137.48 42.6 137.59 42.56 137.67 42.49C137.75 42.43 137.8 42.33 137.8 42.2C137.8 42.11 137.79 42.02 137.76 41.9C137.73 41.79 137.68 41.65 137.6 41.48L137.1 40.32L137.02 40.09L135.69 36.72H135.65L134.29 40.09L134.21 40.32L133.64 41.67C133.61 41.76 133.58 41.85 133.55 41.94C133.52 42.03 133.51 42.13 133.51 42.24C133.51 42.4 133.57 42.51 133.7 42.56C133.82 42.61 134.02 42.64 134.29 42.64V42.97H134.33ZM137.3 40.42H134.07L134.24 39.96H137.12L137.3 40.42Z" fill="#916D4F"/>
<path d="M146.86 43.1098C145.83 43.1098 145.08 42.8698 144.61 42.3998C144.14 41.9298 143.9 41.1498 143.9 40.0698V36.7098C143.9 36.4398 143.87 36.2298 143.81 36.0798C143.75 35.9298 143.64 35.8298 143.47 35.7698C143.31 35.7098 143.07 35.6798 142.76 35.6798V35.3298H146.11V35.6798C145.78 35.6798 145.54 35.7098 145.38 35.7698C145.22 35.8298 145.11 35.9398 145.05 36.0898C145 36.2398 144.97 36.4698 144.97 36.7598V40.0498C144.97 40.5498 145.04 40.9798 145.17 41.3198C145.3 41.6598 145.53 41.9298 145.85 42.0998C146.17 42.2798 146.61 42.3698 147.16 42.3698C147.92 42.3698 148.47 42.1898 148.8 41.8298C149.14 41.4698 149.3 40.8898 149.3 40.0898V37.1698C149.3 36.7598 149.28 36.4498 149.23 36.2298C149.18 36.0198 149.08 35.8698 148.93 35.7898C148.78 35.7098 148.54 35.6698 148.21 35.6698V35.3198H151.06V35.6698C150.73 35.6698 150.48 35.7098 150.33 35.7898C150.17 35.8698 150.08 36.0098 150.03 36.2098C149.99 36.4198 149.97 36.7198 149.97 37.1198V39.9198C149.97 40.9698 149.73 41.7698 149.24 42.2998C148.75 42.8398 147.96 43.1098 146.86 43.1098Z" fill="#916D4F"/>
<path d="M158.78 42.9701H155.41V42.6201C155.74 42.6201 155.98 42.5901 156.14 42.5401C156.3 42.4901 156.41 42.3801 156.47 42.2101C156.52 42.0401 156.55 41.7901 156.55 41.4401V35.8501H155.81C155.38 35.8501 155.06 35.8901 154.85 35.9801C154.64 36.0601 154.48 36.2201 154.39 36.4401C154.3 36.6601 154.21 36.9901 154.12 37.4201H153.76L153.89 35.3301H160.32L160.41 37.4201H160.05C159.97 36.9901 159.88 36.6701 159.78 36.4401C159.68 36.2101 159.54 36.0601 159.33 35.9801C159.12 35.8901 158.8 35.8501 158.37 35.8501H157.64V41.4401C157.64 41.7901 157.67 42.0501 157.72 42.2101C157.77 42.3801 157.88 42.4901 158.05 42.5401C158.21 42.5901 158.46 42.6201 158.79 42.6201V42.9701H158.78Z" fill="#916D4F"/>
<path d="M169.54 42.9698H163.33V42.6198C163.65 42.6198 163.89 42.5998 164.04 42.5598C164.2 42.5198 164.31 42.4198 164.37 42.2698C164.43 42.1198 164.46 41.8998 164.46 41.5998V36.7498C164.46 36.4598 164.43 36.2298 164.37 36.0798C164.31 35.9198 164.2 35.8198 164.04 35.7698C163.88 35.7198 163.64 35.6898 163.33 35.6898V35.3398H169.43L169.5 37.2498H169.13C169.08 36.8598 168.99 36.5698 168.88 36.3698C168.77 36.1698 168.59 36.0398 168.33 35.9698C168.08 35.8998 167.71 35.8698 167.23 35.8698H165.52V38.8198H166.88C167.24 38.8198 167.51 38.7898 167.69 38.7298C167.88 38.6698 168 38.5498 168.07 38.3798C168.14 38.2098 168.17 37.9698 168.17 37.6598H168.54V40.3598H168.17C168.17 40.0398 168.13 39.8098 168.07 39.6498C168 39.4998 167.87 39.3998 167.69 39.3498C167.5 39.2998 167.23 39.2798 166.88 39.2798H165.52V42.4798H167.02C167.47 42.4798 167.83 42.4598 168.11 42.4198C168.38 42.3798 168.6 42.2998 168.76 42.1798C168.92 42.0598 169.05 41.8998 169.16 41.6798C169.27 41.4598 169.37 41.1798 169.49 40.8298H169.86L169.54 42.9698Z" fill="#916D4F"/>
</svg>
