<svg width="100" height="100" viewBox="0 0 100 100" fill="none" xmlns="http://www.w3.org/2000/svg">
<path d="M31.09 84.5V84.54C31.94 84.68 32.83 85.14 32.83 86.23C32.83 87.37 31.93 88 30.44 88H27.36V87.7C28.17 87.7 28.33 87.56 28.33 86.73V82.64C28.33 81.84 28.17 81.73 27.36 81.73V81.43H30.06C31.84 81.43 32.51 82 32.51 82.99C32.51 83.88 31.92 84.28 31.09 84.5ZM29.25 84.8V87.6C29.49 87.62 29.73 87.63 29.97 87.63C30.83 87.63 31.78 87.52 31.78 86.25C31.78 85.11 30.88 84.8 29.95 84.8H29.25ZM29.25 84.38H29.93C31.14 84.38 31.52 83.98 31.52 83.07C31.52 82.29 31.07 81.82 29.85 81.82C29.66 81.82 29.45 81.83 29.25 81.85V84.38ZM40.6616 86.14L40.3816 88H35.0416V87.7C35.8516 87.7 36.0116 87.6 36.0116 86.82V82.65C36.0116 81.89 35.8516 81.73 35.0416 81.73V81.43H40.2916L40.3516 83.07H40.0316C39.8816 82.07 39.6316 81.88 38.4016 81.88H36.9316V84.42H38.1016C39.0216 84.42 39.2216 84.23 39.2216 83.42H39.5416V85.74H39.2216C39.2216 84.92 39.0216 84.81 38.1016 84.81H36.9316V87.56H38.2216C39.7716 87.57 39.9516 87.33 40.3416 86.14H40.6616ZM49.5814 88H46.8914V87.7C47.1914 87.7 47.5814 87.68 47.5814 87.33C47.5814 87.19 47.5414 87.01 47.4114 86.71L47.0214 85.81H44.4614L44.0114 86.87C43.9514 87.03 43.9014 87.18 43.9014 87.36C43.9014 87.64 44.1014 87.7 44.5714 87.7V88H42.4714V87.7C43.0314 87.7 43.1714 87.54 43.6514 86.4L45.7714 81.38H46.1814L48.5514 86.81C48.8414 87.47 49.0414 87.7 49.5814 87.7V88ZM46.8714 85.41L45.7714 82.61H45.7414L44.6114 85.41H46.8714ZM58.0099 81.43V81.73C57.1499 81.73 57.0699 81.95 57.0699 82.98V85.39C57.0699 87.21 56.2899 88.12 54.3999 88.12C52.6299 88.12 51.8499 87.36 51.8499 85.5V82.61C51.8499 81.91 51.6599 81.73 50.8699 81.73V81.43H53.7499V81.73C52.8999 81.73 52.7699 81.91 52.7699 82.66V85.49C52.7699 86.79 53.2199 87.49 54.6499 87.49C55.9599 87.49 56.4999 86.91 56.4999 85.53V83.01C56.4999 81.96 56.3999 81.73 55.5599 81.73V81.43H58.0099ZM65.5595 83.23H65.2495C65.0295 82.14 64.9095 81.88 63.7995 81.88H63.1695V86.69C63.1695 87.6 63.2995 87.7 64.1595 87.7V88H61.2595V87.7C62.0995 87.7 62.2395 87.6 62.2395 86.69V81.88H61.5995C60.4995 81.88 60.3595 82.14 60.1495 83.23H59.8395L59.9495 81.43H65.4795L65.5595 83.23ZM73.1948 86.14L72.9148 88H67.5748V87.7C68.3848 87.7 68.5448 87.6 68.5448 86.82V82.65C68.5448 81.89 68.3848 81.73 67.5748 81.73V81.43H72.8248L72.8848 83.07H72.5648C72.4148 82.07 72.1648 81.88 70.9348 81.88H69.4648V84.42H70.6348C71.5548 84.42 71.7548 84.23 71.7548 83.42H72.0748V85.74H71.7548C71.7548 84.92 71.5548 84.81 70.6348 84.81H69.4648V87.56H70.7548C72.3048 87.57 72.4848 87.33 72.8748 86.14H73.1948Z" fill="#916D4F"/>
<path d="M75 35.5087C69.5686 35.1765 69.2315 30.4013 69.2659 28.8336H69.2168V17.822C69.2168 17.822 68.4199 11.0536 74.9247 10.6543V8H57.67C57.67 8.39766 57.67 10.9194 57.67 10.9194C57.67 10.9194 62.9787 10.1225 63.378 16.6273V33.4942H62.1686C62.1686 33.4942 55.3135 34.0391 55.001 27.7863H52.3467V38.3626H63.1521C63.0605 39.7569 62.977 41.048 62.9787 41.048C63.0179 41.048 62.7037 42.7025 62.6808 42.7925C62.3208 44.1917 61.7121 45.5286 60.8938 46.7183C59.079 49.3514 56.2578 51.0304 53.2271 51.9091C50.234 52.7748 47.4521 52.4263 44.6095 51.1957C41.227 49.731 38.5629 46.99 37.437 43.4602C37.1883 42.6796 37.0017 41.8679 36.9461 41.048C36.9461 41.048 36.8626 39.7569 36.771 38.3626H47.5797V27.7863H44.9254C44.6128 34.0375 37.7577 33.4942 37.7577 33.4942H36.5484V16.6273C36.9461 10.1241 42.2563 10.9194 42.2563 10.9194C42.2563 10.9194 42.2563 8.39766 42.2563 8H25V10.6543C31.5032 11.052 30.7079 17.822 30.7079 17.822V29.7467C30.5492 31.753 29.605 35.2256 25.0016 35.507V38.1614H30.7079V40.1185C31.1972 44.9804 33.2215 49.5608 36.9166 52.8239C39.3484 54.9709 42.3185 56.5894 45.4376 57.478C48.6827 58.4026 52.1781 58.1816 55.3594 57.1163C55.8601 56.9494 56.356 56.7661 56.8453 56.5681C60.6304 55.0364 64.0243 52.5245 66.245 49.0601C67.9649 46.378 68.8993 43.2736 69.2184 40.1169V38.1597H75V35.5087Z" fill="#916D4F"/>
<path d="M15.5415 74.5381V74.226C15.7895 74.1096 15.9481 74.0185 16.0156 73.9493C16.0561 73.9139 16.0831 73.8666 16.0999 73.811C16.1354 73.6996 16.1607 73.4584 16.1725 73.0906C16.1877 72.5423 16.1961 72.2167 16.1961 72.1121V68.8848C16.1961 68.3416 16.1894 67.8085 16.1775 67.2889C16.1657 66.9093 16.1371 66.6833 16.0898 66.6141C16.0426 66.5449 15.97 66.4926 15.8671 66.4589C15.7659 66.4251 15.4757 66.4049 15 66.3965V66.0118C15.9751 66.0439 16.5791 66.059 16.8119 66.059C17.0683 66.059 17.6419 66.0422 18.5343 66.0118V66.3965C18.0586 66.4049 17.7701 66.4251 17.6672 66.4589C17.566 66.4926 17.4934 66.5399 17.4546 66.6006C17.4074 66.6799 17.377 66.8739 17.3652 67.1826C17.3618 67.2619 17.3534 67.8304 17.3416 68.8865V72.9168C17.3416 73.3369 17.35 73.6794 17.3652 73.9425C17.8207 73.9712 18.2728 73.9847 18.7216 73.9847C19.8485 73.9847 20.6397 73.9122 21.0902 73.7688C21.1425 73.649 21.188 73.5107 21.2285 73.3555L21.4681 72.3601H21.8696C21.7819 72.9556 21.6958 73.6558 21.6115 74.4605C21.4478 74.4925 21.3179 74.5128 21.2218 74.5212C21.0143 74.533 20.6937 74.5398 20.2619 74.5398L16.7106 74.4925C16.3277 74.4908 15.938 74.5077 15.5415 74.5381Z" fill="#916D4F"/>
<path d="M24.6751 74.5381V74.1602C25.0952 74.1568 25.3702 74.1247 25.5034 74.064C25.5591 74.0404 25.5996 74.0016 25.6232 73.9493C25.6637 73.87 25.6907 73.6591 25.7076 73.32C25.7312 72.792 25.743 72.3365 25.743 71.9518V68.8865C25.743 68.3433 25.7363 67.8102 25.7244 67.2906C25.7126 66.911 25.684 66.6849 25.6367 66.6158C25.5912 66.5466 25.5169 66.4943 25.414 66.4606C25.3128 66.4268 25.0226 66.4066 24.5469 66.3981V66.0135L26.2559 66.0489L28.0677 66.0186C28.9349 66.0067 29.5658 66 29.9572 66C30.3537 66 30.7265 66.0219 31.0791 66.0658C31.015 66.2935 30.9711 66.4926 30.9475 66.6596C30.9391 66.6951 30.9036 67.1118 30.8395 67.908H30.4616C30.465 67.4998 30.4397 67.1286 30.384 66.7929C30.1647 66.7001 29.9218 66.6394 29.6586 66.6073C29.2115 66.5517 28.7628 66.523 28.3157 66.523C28.2196 66.523 28.0053 66.5314 27.6747 66.5466C27.3423 66.5635 27.1044 66.577 26.961 66.5888C26.9442 67.0325 26.9324 67.4492 26.9256 67.8372L26.902 69.865C27.3693 69.8886 27.7995 69.9004 28.1909 69.9004C28.6666 69.9004 29.0732 69.8785 29.4089 69.8346C29.5371 69.8194 29.6181 69.7874 29.6552 69.7385C29.6923 69.6895 29.7227 69.5259 29.7514 69.2458L29.7868 68.8258H30.1462V68.9405L30.1158 70.1889L30.1462 71.5874H29.7261L29.7075 71.1792C29.6991 70.884 29.6721 70.6984 29.6265 70.6275C29.581 70.555 29.4933 70.5061 29.3651 70.4774C29.1373 70.4301 28.6953 70.4048 28.0391 70.4048C27.7708 70.4048 27.3912 70.415 26.8986 70.4352C26.8784 70.835 26.8683 71.4289 26.8683 72.2167C26.8683 72.9573 26.8784 73.5191 26.8986 73.9021C27.4739 73.9459 28.12 73.9678 28.8353 73.9678C29.3431 73.9678 29.7058 73.9527 29.9218 73.9206C30.1377 73.8886 30.3368 73.8346 30.5224 73.7587C30.5696 73.6355 30.6185 73.4668 30.6658 73.2542C30.7535 72.8983 30.8125 72.63 30.8395 72.4512H31.236C31.1314 73.2593 31.0808 73.929 31.0808 74.4605C30.7366 74.5128 30.3182 74.5381 29.8273 74.5381L26.2457 74.4908C26.1951 74.4908 25.6721 74.5077 24.6751 74.5381Z" fill="#916D4F"/>
<path d="M37.8474 74.5988C37.7276 74.2513 37.4779 73.5781 37.0984 72.5828L35.0587 67.5386C34.8428 67.0021 34.7095 66.6934 34.6572 66.609C34.6218 66.5567 34.5712 66.5196 34.5071 66.4943C34.4194 66.4538 34.1984 66.4218 33.8474 66.3981V66.0135C34.5712 66.0456 35.1043 66.0607 35.4484 66.0607C35.7724 66.0607 36.3223 66.0439 37.0984 66.0135V66.4386C36.6108 66.4471 36.3274 66.4572 36.2498 66.469C36.1722 66.4808 36.1182 66.5044 36.0878 66.5382C36.0575 66.5719 36.0423 66.6107 36.0423 66.6546C36.0423 66.6984 36.071 66.803 36.1266 66.9667C36.2987 67.4981 36.4489 67.9266 36.5771 68.2505L38.4547 72.9894L40.0203 69.0603C40.2481 68.4968 40.4657 67.8827 40.6749 67.218C40.7626 66.9346 40.8065 66.7575 40.8065 66.69C40.8065 66.5938 40.7542 66.5297 40.6512 66.4977C40.572 66.469 40.2632 66.4353 39.7268 66.3965V66.0118C40.3307 66.0354 40.7845 66.0472 41.0882 66.0472C41.4003 66.0472 41.8305 66.0354 42.3771 66.0118V66.3965C42.0734 66.4083 41.8912 66.4285 41.8305 66.4555C41.7697 66.4842 41.7141 66.5399 41.6618 66.6242C41.6264 66.6849 41.4779 67.0088 41.2181 67.5959L39.3472 72.2032L38.8849 73.3841C38.7888 73.6203 38.7112 73.8245 38.6504 73.9965C38.5897 74.1686 38.5239 74.3677 38.453 74.5971H37.8474V74.5988Z" fill="#916D4F"/>
<path d="M44.9836 74.5381V74.1602C45.4036 74.1568 45.6786 74.1247 45.8119 74.064C45.8676 74.0404 45.9081 74.0016 45.9317 73.9493C45.9722 73.87 45.9992 73.6591 46.016 73.32C46.0397 72.792 46.0515 72.3365 46.0515 71.9518V68.8865C46.0515 68.3433 46.0447 67.8102 46.0329 67.2906C46.0211 66.911 45.9924 66.6849 45.9452 66.6158C45.8996 66.5466 45.8254 66.4943 45.7225 66.4606C45.6213 66.4268 45.3311 66.4066 44.8554 66.3981V66.0135L46.5643 66.0489L48.3762 66.0186C49.2433 66.0067 49.8743 66 50.2657 66C50.6621 66 51.035 66.0219 51.3875 66.0658C51.3234 66.2935 51.2796 66.4926 51.256 66.6596C51.2475 66.6951 51.2121 67.1118 51.148 67.908H50.7701C50.7735 67.4998 50.7482 67.1286 50.6925 66.7929C50.4732 66.7001 50.2302 66.6394 49.9671 66.6073C49.52 66.5517 49.0713 66.523 48.6242 66.523C48.528 66.523 48.3138 66.5314 47.9831 66.5466C47.6508 66.5635 47.4129 66.577 47.2695 66.5888C47.2526 67.0325 47.2408 67.4492 47.2341 67.8372L47.2105 69.865C47.6778 69.8886 48.108 69.9004 48.4993 69.9004C48.9751 69.9004 49.3817 69.8785 49.7174 69.8346C49.8456 69.8194 49.9266 69.7874 49.9637 69.7385C49.9991 69.6912 50.0312 69.5259 50.0599 69.2458L50.0953 68.8258H50.4546V68.9405L50.4243 70.1889L50.4546 71.5874H50.0345L50.016 71.1792C50.0076 70.884 49.9806 70.6984 49.935 70.6275C49.8895 70.5567 49.8017 70.5061 49.6735 70.4774C49.4458 70.4301 49.0038 70.4048 48.3475 70.4048C48.0793 70.4048 47.6997 70.415 47.2071 70.4352C47.1868 70.835 47.1767 71.4289 47.1767 72.2167C47.1767 72.9573 47.1868 73.5191 47.2071 73.9021C47.7824 73.9459 48.4285 73.9678 49.1438 73.9678C49.6516 73.9678 50.0126 73.9527 50.2302 73.9206C50.4462 73.8886 50.6469 73.8346 50.8308 73.7587C50.8781 73.6355 50.927 73.4668 50.9742 73.2542C51.062 72.8983 51.1193 72.63 51.148 72.4512H51.5444C51.4398 73.2593 51.3892 73.929 51.3892 74.4605C51.0451 74.5128 50.6284 74.5381 50.1358 74.5381L46.5542 74.4908C46.5019 74.4908 45.9789 74.5077 44.9836 74.5381Z" fill="#916D4F"/>
<path d="M54.7886 74.5381V74.226C55.0366 74.1096 55.1952 74.0185 55.2627 73.9493C55.3032 73.9139 55.3302 73.8666 55.347 73.811C55.3825 73.6996 55.4061 73.4584 55.4196 73.0906C55.4348 72.5423 55.4432 72.2167 55.4432 72.1121V68.8848C55.4432 68.3416 55.4364 67.8085 55.4246 67.2889C55.4128 66.9093 55.3841 66.6833 55.3369 66.6141C55.2914 66.5449 55.2171 66.4926 55.1142 66.4589C55.013 66.4251 54.7228 66.4049 54.2471 66.3965V66.0118C55.2222 66.0439 55.8261 66.059 56.059 66.059C56.3154 66.059 56.889 66.0422 57.7797 66.0118V66.3965C57.304 66.4049 57.0155 66.4251 56.9126 66.4589C56.8114 66.4926 56.7388 66.5399 56.7 66.6006C56.6528 66.6799 56.6224 66.8739 56.6106 67.1826C56.6072 67.2619 56.5988 67.8304 56.587 68.8865V72.9168C56.587 73.3369 56.5954 73.6794 56.6106 73.9425C57.0661 73.9712 57.5182 73.9847 57.967 73.9847C59.0956 73.9847 59.8851 73.9122 60.3373 73.7688C60.3896 73.649 60.4351 73.5107 60.4756 73.3555L60.7152 72.3601H61.1167C61.0289 72.9556 60.9429 73.6558 60.8586 74.4605C60.6949 74.4925 60.565 74.5128 60.4689 74.5212C60.2614 74.533 59.9408 74.5398 59.5089 74.5398L55.9577 74.4925C55.5748 74.4908 55.1851 74.5077 54.7886 74.5381Z" fill="#916D4F"/>
<path d="M66.5439 66.3981V66.0135C67.1951 66.0455 67.8007 66.0607 68.3608 66.0607C68.9294 66.0607 69.4928 66.0439 70.0529 66.0135V66.3981C69.5806 66.4066 69.2938 66.4268 69.1892 66.4606C69.0846 66.4943 69.0154 66.5415 68.98 66.6023C68.9277 66.6816 68.8956 66.8756 68.8838 67.1843C68.8804 67.2636 68.872 67.8321 68.8602 68.8882V71.1083C68.8602 71.9687 68.9142 72.5356 69.0255 72.8089C69.1352 73.0822 69.3106 73.3099 69.5502 73.4904C69.7341 73.6271 69.9821 73.735 70.2942 73.8177C70.6063 73.9004 70.9538 73.9408 71.3384 73.9408C71.7872 73.9408 72.1837 73.8852 72.5329 73.7755C72.8804 73.6659 73.1419 73.5309 73.3157 73.374C73.4894 73.2171 73.6193 73.0383 73.7054 72.8426C73.7914 72.6469 73.8538 72.377 73.8909 72.0362C73.9297 71.6937 73.9483 71.2618 73.9483 70.7372V68.8899C73.9483 68.3467 73.9399 67.8136 73.9247 67.2939C73.9162 66.9144 73.8892 66.6883 73.8437 66.6191C73.7981 66.55 73.7222 66.4977 73.6193 66.4639C73.5147 66.4302 73.2279 66.4099 72.7556 66.4015V66.0169C73.4152 66.0489 73.8977 66.0641 74.2013 66.0641C74.4763 66.0641 74.9757 66.0472 75.6944 66.0169V66.4015C75.2186 66.4099 74.9301 66.4302 74.8272 66.4639C74.726 66.4977 74.6535 66.5449 74.6147 66.6056C74.5674 66.6849 74.5371 66.8789 74.5253 67.1877C74.5219 67.267 74.5134 67.8355 74.5016 68.8916V70.9008C74.5016 71.8894 74.4325 72.5777 74.2941 72.9708C74.1558 73.3622 73.9027 73.708 73.535 74.0083C73.2583 74.2327 72.904 74.4065 72.4704 74.5296C72.0369 74.6528 71.5561 74.7152 71.028 74.7152C70.4123 74.7152 69.8792 74.6427 69.427 74.4959C68.9749 74.3491 68.6308 74.1585 68.3946 73.9206C68.1584 73.6827 67.9964 73.4398 67.9087 73.1918C67.7974 72.8645 67.74 72.3146 67.74 71.5419V68.8899C67.74 68.3467 67.7333 67.8136 67.7215 67.2939C67.7096 66.9144 67.681 66.6883 67.6337 66.6191C67.5882 66.55 67.514 66.4977 67.411 66.4639C67.3081 66.4285 67.0197 66.4066 66.5439 66.3981Z" fill="#916D4F"/>
<path d="M78.2097 66.3981V66.0135C79.0127 66.0371 79.6487 66.0489 80.1177 66.0489C80.4298 66.0489 80.7622 66.0456 81.1131 66.0371L82.0544 66.0067C82.159 66.0034 82.2535 66 82.3429 66C82.9789 66 83.4783 66.0709 83.8427 66.2092C84.2071 66.3492 84.4905 66.5719 84.6946 66.8789C84.8988 67.1843 85 67.5335 85 67.9249C85 68.2775 84.9157 68.6267 84.7453 68.9742C84.5749 69.3218 84.3286 69.617 84.0047 69.8599C83.6807 70.1012 83.3433 70.2749 82.9907 70.3778C82.7512 70.4504 82.4796 70.4858 82.1742 70.4858C81.9178 70.4858 81.6428 70.4571 81.3459 70.4015L81.2194 69.951C81.5753 70.0303 81.8554 70.0708 82.0595 70.0708C82.3598 70.0708 82.6449 69.9983 82.9148 69.8515C83.1848 69.7064 83.3939 69.4854 83.5441 69.1935C83.6942 68.9017 83.7685 68.5761 83.7685 68.2201C83.7685 67.8777 83.6959 67.5672 83.5492 67.2889C83.4024 67.0122 83.1814 66.8013 82.8828 66.6563C82.5842 66.5129 82.2231 66.4403 81.7997 66.4403C81.4201 66.4403 81.0119 66.5078 80.5766 66.6444C80.5412 67.0679 80.5226 67.7326 80.5226 68.6351V71.6583C80.5226 72.2015 80.5294 72.7313 80.5412 73.2475C80.553 73.6271 80.5817 73.8531 80.6289 73.9257C80.6745 73.9982 80.7487 74.0505 80.8516 74.0843C80.9528 74.118 81.243 74.1399 81.7187 74.1467V74.5313C80.9781 74.4993 80.4349 74.4841 80.0874 74.4841C79.9507 74.4841 79.3248 74.501 78.2097 74.5313V74.1467C78.6821 74.1382 78.9689 74.118 79.0735 74.0843C79.178 74.0505 79.2489 74.0033 79.2894 73.9425C79.3366 73.8633 79.367 73.6692 79.3788 73.3605C79.3822 73.2762 79.3906 72.7093 79.4024 71.6566V68.8798C79.4024 68.3365 79.3957 67.8034 79.3839 67.2838C79.3721 66.9042 79.3434 66.6782 79.2961 66.609C79.2506 66.5398 79.1764 66.4876 79.0735 66.4538C78.9739 66.4285 78.6854 66.4066 78.2097 66.3981Z" fill="#916D4F"/>
</svg>
